<svg xmlns="http://www.w3.org/2000/svg" xmlns:xlink="http://www.w3.org/1999/xlink" width="500" zoomAndPan="magnify" viewBox="0 0 375 374.999991" height="500" preserveAspectRatio="xMidYMid meet" version="1.0"><defs><clipPath id="dbeb3b31f0"><path d="M 318 221 L 366.628906 221 L 366.628906 320 L 318 320 Z M 318 221 " clip-rule="nonzero"/></clipPath><clipPath id="d14b6ec4ef"><path d="M 8.128906 246 L 191 246 L 191 337.5 L 8.128906 337.5 Z M 8.128906 246 " clip-rule="nonzero"/></clipPath><clipPath id="e11c151697"><path d="M 46 327 L 232 327 L 232 337.5 L 46 337.5 Z M 46 327 " clip-rule="nonzero"/></clipPath><clipPath id="8487e3e05a"><path d="M 326 293 L 366.628906 293 L 366.628906 335 L 326 335 Z M 326 293 " clip-rule="nonzero"/></clipPath><clipPath id="6f9d1e6d20"><path d="M 131 37.5 L 226 37.5 L 226 90 L 131 90 Z M 131 37.5 " clip-rule="nonzero"/></clipPath></defs><path fill="#322a28" d="M 336.726562 148.667969 C 335.84375 144.300781 333.746094 140.117188 330.882812 137.226562 C 324.90625 131.195312 318.652344 127.46875 314.3125 119.878906 C 308.355469 109.46875 315.796875 90.550781 300.902344 86.464844 C 290.976562 83.742188 273.824219 87.738281 265.457031 92.457031 C 262.734375 93.992188 260.078125 95.863281 258.546875 98.574219 C 256.300781 102.550781 256.742188 107.484375 254.777344 111.589844 C 252.976562 115.363281 251.476562 116.703125 250.996094 121.03125 C 250.078125 129.265625 247.117188 136.75 240.699219 142.160156 C 236.925781 145.339844 232.136719 147.804688 230.199219 152.347656 C 227.976562 157.554688 230.46875 164.011719 234.820312 167.960938 C 239.171875 171.914062 244.992188 173.800781 250.695312 175.007812 C 262.941406 177.59375 275.480469 177.550781 287.726562 176.242188 C 300.550781 174.871094 311.683594 176.386719 323.636719 171.09375 C 333.429688 166.75 338.832031 159.039062 336.726562 148.667969 Z M 336.726562 148.667969 " fill-opacity="1" fill-rule="nonzero"/><path fill="#e8898b" d="M 160.601562 183.515625 C 158.988281 179.136719 157.546875 174.695312 156.273438 170.207031 C 155.820312 168.613281 155.390625 167.011719 154.921875 165.421875 C 154.511719 164.039062 154.074219 162.664062 153.574219 161.316406 C 152.601562 158.363281 151.105469 153.890625 150.101562 150.863281 C 149.949219 150.40625 150.140625 149.925781 150.535156 149.765625 L 150.667969 149.710938 C 151.019531 149.570312 151.425781 149.722656 151.652344 150.082031 C 153.289062 152.691406 155.285156 156.175781 155.980469 157.324219 C 157.378906 159.625 159.359375 163.441406 160.757812 165.746094 C 161.316406 166.664062 162.550781 166.058594 162.226562 165.023438 L 154.722656 141.253906 C 154.617188 140.921875 154.679688 140.566406 154.878906 140.320312 L 154.890625 140.304688 C 155.296875 139.804688 156.054688 139.949219 156.359375 140.578125 L 167.089844 162.796875 C 167.277344 163.183594 167.792969 162.957031 167.648438 162.546875 L 159.21875 138.152344 C 158.988281 137.488281 159.261719 136.777344 159.839844 136.542969 C 160.40625 136.3125 161.070312 136.625 161.351562 137.253906 C 162.632812 140.097656 165.890625 147.347656 165.914062 147.402344 L 171.871094 160.9375 C 172.042969 161.335938 172.566406 161.132812 172.441406 160.71875 L 165.859375 138.96875 C 165.636719 138.230469 165.984375 137.464844 166.65625 137.28125 C 167.261719 137.113281 167.917969 137.527344 168.175781 138.191406 C 171.359375 146.347656 176.894531 160.679688 180.132812 169.308594 C 180.601562 170.5625 182.253906 170.207031 182.113281 168.882812 L 180.828125 156.789062 C 180.746094 156.003906 181.652344 155.675781 182.074219 156.339844 C 182.078125 156.347656 182.082031 156.351562 182.085938 156.359375 C 183.496094 158.589844 184.730469 162.726562 185.699219 165.175781 C 188.445312 172.113281 191.980469 180.9375 186.671875 187.472656 C 182.0625 193.144531 173.101562 198.667969 166.339844 193.523438 C 162.976562 190.960938 162.027344 187.398438 160.601562 183.515625 Z M 160.601562 183.515625 " fill-opacity="1" fill-rule="nonzero"/><path fill="#1e352d" d="M 177.515625 185.265625 C 177.410156 185.265625 177.316406 185.191406 177.292969 185.085938 C 176.160156 179.996094 177.535156 174.175781 180.792969 170.257812 C 180.875 170.160156 181.015625 170.148438 181.113281 170.226562 C 181.210938 170.308594 181.222656 170.453125 181.144531 170.546875 C 177.972656 174.359375 176.636719 180.027344 177.738281 184.984375 C 177.765625 185.109375 177.691406 185.230469 177.566406 185.257812 C 177.550781 185.261719 177.535156 185.265625 177.515625 185.265625 Z M 177.515625 185.265625 " fill-opacity="1" fill-rule="nonzero"/><path fill="#1e352d" d="M 161.148438 169.28125 C 161.070312 169.28125 160.992188 169.238281 160.953125 169.164062 C 160.890625 169.058594 160.925781 168.917969 161.035156 168.855469 C 162.21875 168.171875 163.40625 167.410156 164.550781 166.671875 C 167.558594 164.738281 170.667969 162.734375 174.148438 161.914062 C 174.273438 161.882812 174.394531 161.960938 174.421875 162.082031 C 174.453125 162.207031 174.375 162.328125 174.253906 162.359375 C 170.847656 163.160156 167.773438 165.140625 164.796875 167.054688 C 163.648438 167.796875 162.457031 168.5625 161.261719 169.25 C 161.226562 169.269531 161.1875 169.28125 161.148438 169.28125 Z M 161.148438 169.28125 " fill-opacity="1" fill-rule="nonzero"/><path fill="#e8898b" d="M 163.050781 182.222656 L 144.636719 277.539062 C 140.742188 297.703125 159.542969 314.851562 179.25 309.105469 L 184.480469 184.144531 Z M 163.050781 182.222656 " fill-opacity="1" fill-rule="nonzero"/><path fill="#e8898b" d="M 192.238281 219.789062 L 191.691406 221.34375 L 160.28125 310.355469 L 159.496094 318.421875 L 172.765625 318.421875 C 184.984375 318.421875 195.894531 310.753906 200.035156 299.25 L 228.09375 221.34375 L 228.65625 219.789062 Z M 192.238281 219.789062 " fill-opacity="1" fill-rule="nonzero"/><path fill="#3ac2ff" d="M 248.757812 163.980469 L 228.097656 221.34375 L 191.691406 221.34375 L 200.203125 197.214844 C 207.101562 177.667969 226.140625 163.980469 246.4375 163.980469 Z M 248.757812 163.980469 " fill-opacity="1" fill-rule="nonzero"/><path fill="#322a28" d="M 252.78125 69.558594 C 263.097656 70.335938 273.035156 71.679688 283.25 72.921875 C 291.808594 73.964844 301.378906 76.078125 306.289062 83.933594 C 313.972656 96.234375 311.058594 113.066406 303.421875 124.6875 C 298.066406 132.84375 289.34375 139.015625 279.652344 140.109375 C 269.957031 141.203125 259.546875 136.660156 254.730469 128.167969 C 249.359375 118.695312 251.679688 107.4375 248.976562 97.28125 C 246.890625 89.4375 239.054688 82.242188 243.183594 73.78125 C 243.902344 72.304688 244.957031 70.921875 246.417969 70.167969 C 248.199219 69.25 250.316406 69.375 252.316406 69.519531 C 252.472656 69.535156 252.625 69.546875 252.78125 69.558594 Z M 252.78125 69.558594 " fill-opacity="1" fill-rule="nonzero"/><path fill="#3ac2ff" d="M 225.605469 261.351562 L 228.171875 266.988281 L 231.6875 311.515625 L 345.046875 311.515625 L 353.050781 197.820312 C 351.800781 178.78125 336.003906 163.980469 316.9375 163.980469 L 241.796875 163.980469 L 224.382812 202.960938 C 219.75 213.328125 217.796875 224.71875 218.859375 236.023438 C 219.675781 244.730469 221.9375 253.292969 225.605469 261.351562 Z M 225.605469 261.351562 " fill-opacity="1" fill-rule="nonzero"/><path fill="#e8898b" d="M 294.003906 110.039062 L 294.003906 161.480469 C 294.003906 169.089844 287.835938 175.257812 280.230469 175.257812 L 273.851562 175.257812 C 266.246094 175.257812 260.078125 169.089844 260.078125 161.480469 L 260.078125 113.167969 L 277.042969 111.601562 Z M 294.003906 110.039062 " fill-opacity="1" fill-rule="nonzero"/><path fill="#322a28" d="M 276.847656 111.601562 L 276.847656 126.546875 C 276.847656 135.4375 269.644531 142.648438 260.753906 142.648438 L 259.882812 142.648438 L 259.882812 113.167969 Z M 276.847656 111.601562 " fill-opacity="1" fill-rule="nonzero"/><path fill="#e8898b" d="M 286.800781 105.851562 C 281.984375 102.433594 280.609375 102.082031 273.839844 96.519531 C 268.535156 92.164062 264.558594 86.804688 259.207031 82.582031 L 255.335938 87.203125 C 252.144531 91.011719 250.027344 95.601562 249.203125 100.503906 C 247.199219 112.410156 246.007812 133.671875 262.054688 137.066406 C 268.832031 138.5 275.859375 136.3125 280.847656 131.496094 C 286.53125 126.003906 290.890625 117.269531 293.945312 110.085938 C 292.363281 108.558594 288.574219 107.109375 286.800781 105.851562 Z M 286.800781 105.851562 " fill-opacity="1" fill-rule="nonzero"/><path fill="#e8898b" d="M 297.484375 106.058594 C 297.484375 106.527344 297.4375 106.988281 297.347656 107.445312 C 297.257812 107.902344 297.121094 108.347656 296.941406 108.777344 C 296.765625 109.210938 296.546875 109.621094 296.285156 110.007812 C 296.027344 110.394531 295.734375 110.753906 295.402344 111.085938 C 295.074219 111.414062 294.714844 111.710938 294.328125 111.96875 C 293.9375 112.230469 293.53125 112.449219 293.097656 112.625 C 292.667969 112.804688 292.222656 112.941406 291.765625 113.03125 C 291.308594 113.121094 290.847656 113.167969 290.378906 113.167969 C 289.914062 113.167969 289.453125 113.121094 288.992188 113.03125 C 288.535156 112.941406 288.09375 112.804688 287.660156 112.625 C 287.230469 112.449219 286.820312 112.230469 286.433594 111.96875 C 286.042969 111.710938 285.6875 111.414062 285.355469 111.085938 C 285.027344 110.753906 284.730469 110.394531 284.472656 110.007812 C 284.214844 109.621094 283.996094 109.210938 283.816406 108.777344 C 283.636719 108.347656 283.503906 107.902344 283.410156 107.445312 C 283.320312 106.988281 283.273438 106.527344 283.273438 106.058594 C 283.273438 105.59375 283.320312 105.128906 283.410156 104.671875 C 283.503906 104.214844 283.636719 103.769531 283.816406 103.339844 C 283.996094 102.90625 284.214844 102.496094 284.472656 102.109375 C 284.730469 101.722656 285.027344 101.363281 285.355469 101.03125 C 285.6875 100.703125 286.042969 100.40625 286.433594 100.148438 C 286.820312 99.886719 287.230469 99.667969 287.660156 99.492188 C 288.09375 99.3125 288.535156 99.175781 288.992188 99.085938 C 289.453125 98.996094 289.914062 98.949219 290.378906 98.949219 C 290.847656 98.949219 291.308594 98.996094 291.765625 99.085938 C 292.222656 99.175781 292.667969 99.3125 293.097656 99.492188 C 293.53125 99.667969 293.9375 99.886719 294.328125 100.148438 C 294.714844 100.40625 295.074219 100.703125 295.402344 101.03125 C 295.734375 101.363281 296.027344 101.722656 296.285156 102.109375 C 296.546875 102.496094 296.765625 102.90625 296.941406 103.339844 C 297.121094 103.769531 297.257812 104.214844 297.347656 104.671875 C 297.4375 105.128906 297.484375 105.59375 297.484375 106.058594 Z M 297.484375 106.058594 " fill-opacity="1" fill-rule="nonzero"/><path fill="#261e3f" d="M 288.472656 108.707031 C 288.449219 108.707031 288.425781 108.707031 288.402344 108.703125 C 288.019531 108.664062 287.742188 108.324219 287.78125 107.945312 C 288.042969 105.363281 290.359375 103.144531 292.949219 102.992188 C 293.328125 102.96875 293.65625 103.261719 293.679688 103.644531 C 293.699219 104.027344 293.410156 104.355469 293.027344 104.375 C 291.089844 104.488281 289.355469 106.152344 289.160156 108.082031 C 289.125 108.441406 288.824219 108.707031 288.472656 108.707031 Z M 288.472656 108.707031 " fill-opacity="1" fill-rule="nonzero"/><path fill="#322a28" d="M 253.113281 104.269531 C 253.300781 104.386719 253.457031 104.535156 253.585938 104.710938 C 253.714844 104.890625 253.800781 105.085938 253.851562 105.300781 C 253.902344 105.515625 253.90625 105.730469 253.871094 105.949219 C 253.835938 106.164062 253.757812 106.367188 253.640625 106.554688 C 253.527344 106.738281 253.378906 106.898438 253.199219 107.023438 C 253.019531 107.152344 252.824219 107.242188 252.609375 107.289062 C 252.394531 107.339844 252.179688 107.347656 251.964844 107.308594 C 251.746094 107.273438 251.546875 107.199219 251.359375 107.082031 C 251.171875 106.964844 251.015625 106.816406 250.890625 106.636719 C 250.761719 106.457031 250.671875 106.261719 250.625 106.046875 C 250.574219 105.835938 250.566406 105.617188 250.601562 105.402344 C 250.640625 105.183594 250.714844 104.984375 250.832031 104.796875 C 250.949219 104.609375 251.097656 104.453125 251.273438 104.324219 C 251.453125 104.199219 251.648438 104.109375 251.863281 104.058594 C 252.078125 104.011719 252.292969 104.003906 252.511719 104.039062 C 252.726562 104.078125 252.929688 104.152344 253.113281 104.269531 Z M 253.113281 104.269531 " fill-opacity="1" fill-rule="nonzero"/><path fill="#322a28" d="M 272.328125 104.269531 C 272.515625 104.386719 272.671875 104.535156 272.800781 104.714844 C 272.925781 104.890625 273.015625 105.089844 273.0625 105.304688 C 273.113281 105.515625 273.121094 105.734375 273.085938 105.949219 C 273.046875 106.167969 272.972656 106.367188 272.855469 106.554688 C 272.738281 106.742188 272.589844 106.898438 272.414062 107.023438 C 272.234375 107.152344 272.039062 107.242188 271.824219 107.292969 C 271.609375 107.339844 271.394531 107.347656 271.175781 107.3125 C 270.960938 107.273438 270.757812 107.199219 270.574219 107.082031 C 270.386719 106.964844 270.230469 106.816406 270.101562 106.640625 C 269.972656 106.460938 269.886719 106.261719 269.835938 106.050781 C 269.785156 105.835938 269.78125 105.621094 269.816406 105.402344 C 269.851562 105.1875 269.929688 104.984375 270.046875 104.796875 C 270.160156 104.613281 270.308594 104.453125 270.488281 104.328125 C 270.667969 104.199219 270.863281 104.109375 271.078125 104.0625 C 271.292969 104.011719 271.507812 104.003906 271.722656 104.042969 C 271.941406 104.078125 272.140625 104.152344 272.328125 104.269531 Z M 272.328125 104.269531 " fill-opacity="1" fill-rule="nonzero"/><path fill="#261e3f" d="M 273.957031 101.988281 C 273.832031 101.988281 273.703125 101.964844 273.582031 101.914062 C 272.605469 101.496094 271.460938 101.492188 270.351562 101.898438 C 269.847656 102.078125 269.292969 101.820312 269.109375 101.320312 C 268.929688 100.820312 269.1875 100.261719 269.6875 100.078125 C 271.257812 99.503906 272.910156 99.523438 274.339844 100.132812 C 274.828125 100.34375 275.058594 100.910156 274.847656 101.402344 C 274.691406 101.769531 274.335938 101.988281 273.957031 101.988281 Z M 273.957031 101.988281 " fill-opacity="1" fill-rule="nonzero"/><path fill="#261e3f" d="M 254.402344 101.988281 C 254.277344 101.988281 254.148438 101.964844 254.023438 101.914062 C 253.050781 101.496094 251.902344 101.492188 250.796875 101.898438 C 250.292969 102.082031 249.738281 101.820312 249.554688 101.320312 C 249.371094 100.820312 249.628906 100.261719 250.132812 100.078125 C 251.703125 99.503906 253.355469 99.523438 254.78125 100.132812 C 255.273438 100.34375 255.503906 100.910156 255.292969 101.402344 C 255.136719 101.769531 254.777344 101.988281 254.402344 101.988281 Z M 254.402344 101.988281 " fill-opacity="1" fill-rule="nonzero"/><g clip-path="url(#dbeb3b31f0)"><path fill="#e8898b" d="M 318.015625 221.300781 L 331.488281 319.503906 L 366.355469 311.152344 L 355.042969 221.300781 Z M 318.015625 221.300781 " fill-opacity="1" fill-rule="nonzero"/></g><path fill="#261e3f" d="M 262.398438 117.085938 C 261.117188 117.085938 260.152344 116.710938 259.523438 115.972656 C 258.378906 114.617188 258.730469 112.460938 258.96875 111.035156 C 259.003906 110.804688 259.039062 110.589844 259.066406 110.40625 L 259.925781 103.765625 C 259.976562 103.390625 260.324219 103.125 260.699219 103.171875 C 261.078125 103.222656 261.34375 103.566406 261.292969 103.945312 L 260.429688 110.582031 C 260.40625 110.78125 260.367188 111.011719 260.324219 111.261719 C 260.132812 112.4375 259.839844 114.214844 260.574219 115.082031 C 260.933594 115.503906 261.527344 115.707031 262.398438 115.707031 C 262.777344 115.707031 263.085938 116.015625 263.085938 116.398438 C 263.085938 116.777344 262.777344 117.085938 262.398438 117.085938 Z M 262.398438 117.085938 " fill-opacity="1" fill-rule="nonzero"/><path fill="#bbd9f4" d="M 317.832031 220.847656 L 316.59375 214.320312 C 315.730469 209.761719 314.835938 205.050781 314.761719 200.304688 C 314.671875 194.929688 315.675781 190.273438 317.742188 186.464844 L 318.59375 186.925781 C 316.605469 190.585938 315.640625 195.082031 315.726562 200.289062 C 315.800781 204.949219 316.6875 209.621094 317.542969 214.140625 L 318.78125 220.667969 Z M 317.832031 220.847656 " fill-opacity="1" fill-rule="nonzero"/><path fill="#ffffff" d="M 260.730469 122.585938 L 269.359375 121.113281 C 269.734375 121.050781 270.074219 121.347656 270.058594 121.730469 C 270.019531 122.796875 269.539062 124.773438 266.746094 125.769531 C 262.265625 127.375 260.734375 124.710938 260.265625 123.382812 C 260.140625 123.027344 260.363281 122.648438 260.730469 122.585938 Z M 260.730469 122.585938 " fill-opacity="1" fill-rule="nonzero"/><path fill="#3ac2ff" d="M 327.390625 165.519531 C 327.390625 165.519531 355.242188 171.78125 355.042969 221.300781 L 318.015625 221.300781 L 315.570312 194.050781 C 314.960938 187.230469 316.800781 180.417969 320.765625 174.839844 Z M 327.390625 165.519531 " fill-opacity="1" fill-rule="nonzero"/><path fill="#bbd9f4" d="M 219.34375 223.9375 L 218.375 223.917969 C 218.4375 221.039062 218.859375 217.910156 219.667969 214.351562 C 220.785156 209.441406 222.457031 204.398438 224.933594 198.472656 C 226.992188 193.542969 229.433594 188.460938 232.191406 183.371094 L 233.042969 183.832031 C 230.296875 188.894531 227.871094 193.945312 225.824219 198.84375 C 223.371094 204.714844 221.714844 209.714844 220.609375 214.566406 C 219.816406 218.058594 219.402344 221.125 219.34375 223.9375 Z M 219.34375 223.9375 " fill-opacity="1" fill-rule="nonzero"/><path fill="#3086ff" d="M 297.03125 100.414062 L 293.769531 100.414062 L 293.769531 84.953125 C 293.769531 78.65625 288.664062 73.546875 282.371094 73.546875 L 277.089844 73.546875 C 277.089844 71.746094 278.550781 70.285156 280.351562 70.285156 L 282.371094 70.285156 C 290.46875 70.285156 297.03125 76.851562 297.03125 84.953125 Z M 297.03125 100.414062 " fill-opacity="1" fill-rule="nonzero"/><path fill="#3086ff" d="M 266.066406 134.773438 L 265.636719 132.53125 L 278.835938 130.011719 C 281.289062 129.542969 283.414062 128.152344 284.828125 126.09375 L 293.4375 113.539062 L 295.316406 114.828125 L 286.707031 127.382812 C 284.953125 129.945312 282.308594 131.671875 279.261719 132.253906 Z M 266.066406 134.773438 " fill-opacity="1" fill-rule="nonzero"/><path fill="#3ac2ff" d="M 265.210938 130.394531 C 265.617188 130.460938 265.996094 130.605469 266.347656 130.824219 C 266.699219 131.042969 266.992188 131.320312 267.234375 131.65625 C 267.472656 131.992188 267.640625 132.363281 267.734375 132.765625 C 267.828125 133.167969 267.839844 133.574219 267.769531 133.984375 C 267.703125 134.390625 267.558594 134.769531 267.339844 135.121094 C 267.121094 135.472656 266.84375 135.765625 266.507812 136.007812 C 266.171875 136.246094 265.800781 136.414062 265.398438 136.507812 C 264.996094 136.601562 264.589844 136.613281 264.183594 136.542969 C 263.777344 136.476562 263.398438 136.332031 263.046875 136.113281 C 262.695312 135.894531 262.402344 135.617188 262.160156 135.28125 C 261.921875 134.941406 261.753906 134.574219 261.660156 134.171875 C 261.570312 133.769531 261.554688 133.363281 261.625 132.953125 C 261.691406 132.546875 261.835938 132.167969 262.054688 131.816406 C 262.273438 131.464844 262.550781 131.171875 262.886719 130.929688 C 263.222656 130.691406 263.59375 130.523438 263.996094 130.429688 C 264.398438 130.335938 264.804688 130.324219 265.210938 130.394531 Z M 265.210938 130.394531 " fill-opacity="1" fill-rule="nonzero"/><path fill="#3ac2ff" d="M 297.398438 96.152344 C 298.167969 96.28125 298.921875 96.484375 299.652344 96.761719 C 300.382812 97.035156 301.082031 97.382812 301.742188 97.796875 C 302.40625 98.210938 303.023438 98.6875 303.59375 99.222656 C 304.164062 99.757812 304.675781 100.347656 305.128906 100.984375 C 305.582031 101.621094 305.972656 102.296875 306.292969 103.007812 C 306.613281 103.722656 306.863281 104.460938 307.039062 105.222656 C 307.214844 105.984375 307.316406 106.757812 307.339844 107.539062 C 307.363281 108.320312 307.3125 109.097656 307.183594 109.871094 C 307.054688 110.644531 306.851562 111.394531 306.574219 112.125 C 306.296875 112.859375 305.949219 113.558594 305.535156 114.21875 C 305.121094 114.882812 304.648438 115.5 304.113281 116.070312 C 303.574219 116.640625 302.988281 117.152344 302.351562 117.609375 C 301.714844 118.0625 301.042969 118.453125 300.328125 118.773438 C 299.617188 119.09375 298.878906 119.34375 298.117188 119.519531 C 297.355469 119.695312 296.582031 119.796875 295.800781 119.820312 C 295.019531 119.84375 294.242188 119.792969 293.472656 119.664062 C 292.699219 119.535156 291.949219 119.332031 291.21875 119.054688 C 290.484375 118.777344 289.789062 118.429688 289.125 118.015625 C 288.460938 117.601562 287.84375 117.125 287.277344 116.589844 C 286.707031 116.054688 286.195312 115.46875 285.738281 114.832031 C 285.285156 114.195312 284.898438 113.519531 284.578125 112.804688 C 284.253906 112.089844 284.007812 111.355469 283.832031 110.589844 C 283.652344 109.828125 283.554688 109.054688 283.53125 108.273438 C 283.507812 107.492188 283.558594 106.714844 283.6875 105.941406 C 283.816406 105.171875 284.019531 104.417969 284.296875 103.6875 C 284.574219 102.957031 284.917969 102.257812 285.332031 101.59375 C 285.746094 100.929688 286.222656 100.3125 286.757812 99.742188 C 287.292969 99.171875 287.878906 98.660156 288.515625 98.207031 C 289.152344 97.75 289.828125 97.363281 290.539062 97.039062 C 291.253906 96.71875 291.992188 96.46875 292.753906 96.292969 C 293.515625 96.117188 294.285156 96.015625 295.066406 95.992188 C 295.851562 95.96875 296.625 96.023438 297.398438 96.152344 Z M 297.398438 96.152344 " fill-opacity="1" fill-rule="nonzero"/><path fill="#bbddf4" d="M 295.445312 116.492188 C 294.972656 116.492188 294.492188 116.453125 294.011719 116.371094 C 291.75 115.992188 289.773438 114.757812 288.4375 112.886719 C 287.105469 111.019531 286.582031 108.746094 286.960938 106.480469 C 287.335938 104.214844 288.574219 102.234375 290.441406 100.902344 C 292.308594 99.566406 294.582031 99.042969 296.84375 99.421875 C 299.105469 99.800781 301.085938 101.039062 302.417969 102.90625 C 303.75 104.773438 304.277344 107.046875 303.898438 109.3125 C 303.519531 111.578125 302.28125 113.558594 300.417969 114.890625 C 298.945312 115.941406 297.21875 116.492188 295.445312 116.492188 Z M 295.414062 100.6875 C 293.925781 100.6875 292.480469 101.148438 291.246094 102.03125 C 289.679688 103.148438 288.640625 104.8125 288.324219 106.710938 C 288.007812 108.609375 288.449219 110.515625 289.566406 112.082031 C 290.683594 113.648438 292.34375 114.6875 294.242188 115.003906 C 296.140625 115.320312 298.046875 114.882812 299.613281 113.761719 C 301.175781 112.644531 302.214844 110.984375 302.53125 109.085938 C 302.851562 107.1875 302.40625 105.277344 301.292969 103.710938 C 300.175781 102.144531 298.511719 101.105469 296.617188 100.789062 C 296.214844 100.722656 295.8125 100.6875 295.414062 100.6875 Z M 295.414062 100.6875 " fill-opacity="1" fill-rule="nonzero"/><path fill="#322a28" d="M 273.957031 71.777344 L 288.472656 75.316406 L 281.214844 89.984375 L 270.019531 79.109375 Z M 273.957031 71.777344 " fill-opacity="1" fill-rule="nonzero"/><g clip-path="url(#d14b6ec4ef)"><path fill="#bbddf4" d="M 187.328125 337.027344 L 41.4375 337.027344 C 40.101562 337.027344 38.910156 336.179688 38.464844 334.917969 L 8.90625 250.503906 C 8.1875 248.453125 9.707031 246.308594 11.878906 246.308594 L 157.765625 246.308594 C 159.101562 246.308594 160.292969 247.15625 160.738281 248.417969 L 190.300781 332.832031 C 191.015625 334.878906 189.496094 337.027344 187.328125 337.027344 Z M 187.328125 337.027344 " fill-opacity="1" fill-rule="nonzero"/></g><path fill="#fcfcfb" d="M 99.601562 293.886719 C 99.601562 294.265625 99.5625 294.644531 99.492188 295.015625 C 99.417969 295.386719 99.304688 295.75 99.160156 296.101562 C 99.015625 296.453125 98.839844 296.785156 98.628906 297.101562 C 98.417969 297.417969 98.175781 297.707031 97.910156 297.976562 C 97.640625 298.246094 97.347656 298.484375 97.03125 298.695312 C 96.714844 298.90625 96.382812 299.085938 96.03125 299.230469 C 95.683594 299.375 95.320312 299.484375 94.949219 299.558594 C 94.574219 299.632812 94.199219 299.671875 93.820312 299.671875 C 93.441406 299.671875 93.066406 299.632812 92.691406 299.558594 C 92.320312 299.484375 91.957031 299.375 91.609375 299.230469 C 91.257812 299.085938 90.925781 298.90625 90.609375 298.695312 C 90.292969 298.484375 90 298.246094 89.734375 297.976562 C 89.464844 297.707031 89.226562 297.417969 89.015625 297.101562 C 88.804688 296.785156 88.625 296.453125 88.480469 296.101562 C 88.335938 295.75 88.226562 295.386719 88.152344 295.015625 C 88.078125 294.644531 88.039062 294.265625 88.039062 293.886719 C 88.039062 293.507812 88.078125 293.128906 88.152344 292.757812 C 88.226562 292.386719 88.335938 292.023438 88.480469 291.671875 C 88.625 291.320312 88.804688 290.988281 89.015625 290.671875 C 89.226562 290.355469 89.464844 290.066406 89.734375 289.796875 C 90 289.527344 90.292969 289.289062 90.609375 289.078125 C 90.925781 288.867188 91.257812 288.6875 91.609375 288.542969 C 91.957031 288.398438 92.320312 288.289062 92.691406 288.214844 C 93.066406 288.140625 93.441406 288.101562 93.820312 288.101562 C 94.199219 288.101562 94.574219 288.140625 94.949219 288.214844 C 95.320312 288.289062 95.683594 288.398438 96.03125 288.542969 C 96.382812 288.6875 96.714844 288.867188 97.03125 289.078125 C 97.347656 289.289062 97.640625 289.527344 97.910156 289.796875 C 98.175781 290.066406 98.417969 290.355469 98.628906 290.671875 C 98.839844 290.988281 99.015625 291.320312 99.160156 291.671875 C 99.304688 292.023438 99.417969 292.386719 99.492188 292.757812 C 99.5625 293.128906 99.601562 293.507812 99.601562 293.886719 Z M 99.601562 293.886719 " fill-opacity="1" fill-rule="nonzero"/><g clip-path="url(#e11c151697)"><path fill="#bbddf4" d="M 226.792969 337.4375 L 51.71875 337.4375 C 48.921875 337.4375 46.65625 335.167969 46.65625 332.371094 C 46.65625 329.570312 48.921875 327.300781 51.71875 327.300781 L 226.792969 327.300781 C 229.589844 327.300781 231.859375 329.570312 231.859375 332.371094 C 231.859375 335.167969 229.59375 337.4375 226.792969 337.4375 Z M 226.792969 337.4375 " fill-opacity="1" fill-rule="nonzero"/></g><path fill="#e8898b" d="M 244.023438 296.832031 L 348.484375 297.320312 L 346.589844 334.222656 L 243.453125 319.648438 Z M 244.023438 296.832031 " fill-opacity="1" fill-rule="nonzero"/><g clip-path="url(#8487e3e05a)"><path fill="#e8898b" d="M 366.746094 314.054688 C 366.746094 314.714844 366.714844 315.375 366.648438 316.03125 C 366.585938 316.691406 366.488281 317.34375 366.359375 317.988281 C 366.230469 318.636719 366.070312 319.277344 365.878906 319.910156 C 365.6875 320.542969 365.464844 321.164062 365.210938 321.773438 C 364.960938 322.382812 364.679688 322.980469 364.367188 323.5625 C 364.054688 324.144531 363.71875 324.710938 363.351562 325.261719 C 362.984375 325.808594 362.589844 326.339844 362.171875 326.851562 C 361.753906 327.359375 361.308594 327.851562 360.84375 328.316406 C 360.375 328.785156 359.886719 329.226562 359.378906 329.644531 C 358.867188 330.066406 358.339844 330.457031 357.789062 330.824219 C 357.242188 331.191406 356.675781 331.53125 356.09375 331.84375 C 355.511719 332.152344 354.914062 332.4375 354.304688 332.6875 C 353.695312 332.941406 353.074219 333.164062 352.441406 333.355469 C 351.8125 333.546875 351.171875 333.707031 350.523438 333.835938 C 349.875 333.964844 349.222656 334.0625 348.566406 334.125 C 347.910156 334.191406 347.25 334.222656 346.589844 334.222656 C 345.929688 334.222656 345.273438 334.191406 344.617188 334.125 C 343.960938 334.0625 343.308594 333.964844 342.660156 333.835938 C 342.011719 333.707031 341.371094 333.546875 340.742188 333.355469 C 340.109375 333.164062 339.488281 332.941406 338.878906 332.6875 C 338.269531 332.4375 337.671875 332.152344 337.089844 331.84375 C 336.507812 331.53125 335.941406 331.191406 335.394531 330.824219 C 334.84375 330.457031 334.316406 330.066406 333.804688 329.644531 C 333.292969 329.226562 332.804688 328.785156 332.339844 328.316406 C 331.871094 327.851562 331.429688 327.359375 331.011719 326.851562 C 330.59375 326.339844 330.199219 325.808594 329.832031 325.261719 C 329.464844 324.710938 329.128906 324.144531 328.816406 323.5625 C 328.503906 322.980469 328.222656 322.382812 327.96875 321.773438 C 327.71875 321.164062 327.496094 320.542969 327.304688 319.910156 C 327.113281 319.277344 326.953125 318.636719 326.824219 317.988281 C 326.695312 317.34375 326.597656 316.691406 326.53125 316.03125 C 326.46875 315.375 326.4375 314.714844 326.4375 314.054688 C 326.4375 313.394531 326.46875 312.734375 326.53125 312.078125 C 326.597656 311.421875 326.695312 310.769531 326.824219 310.121094 C 326.953125 309.472656 327.113281 308.832031 327.304688 308.199219 C 327.496094 307.570312 327.71875 306.949219 327.96875 306.335938 C 328.222656 305.726562 328.503906 305.128906 328.816406 304.546875 C 329.128906 303.964844 329.464844 303.398438 329.832031 302.851562 C 330.199219 302.300781 330.59375 301.769531 331.011719 301.261719 C 331.429688 300.75 331.871094 300.261719 332.339844 299.792969 C 332.804688 299.328125 333.292969 298.882812 333.804688 298.464844 C 334.316406 298.046875 334.84375 297.652344 335.394531 297.285156 C 335.941406 296.917969 336.507812 296.578125 337.089844 296.269531 C 337.671875 295.957031 338.269531 295.675781 338.878906 295.421875 C 339.488281 295.167969 340.109375 294.945312 340.742188 294.753906 C 341.371094 294.5625 342.011719 294.402344 342.660156 294.273438 C 343.308594 294.144531 343.960938 294.046875 344.617188 293.984375 C 345.273438 293.917969 345.929688 293.886719 346.589844 293.886719 C 347.25 293.886719 347.910156 293.917969 348.566406 293.984375 C 349.222656 294.046875 349.875 294.144531 350.523438 294.273438 C 351.171875 294.402344 351.8125 294.5625 352.441406 294.753906 C 353.074219 294.945312 353.695312 295.167969 354.304688 295.421875 C 354.914062 295.675781 355.511719 295.957031 356.09375 296.269531 C 356.675781 296.578125 357.242188 296.917969 357.789062 297.285156 C 358.339844 297.652344 358.867188 298.046875 359.378906 298.464844 C 359.886719 298.882812 360.375 299.328125 360.84375 299.792969 C 361.308594 300.261719 361.753906 300.75 362.171875 301.261719 C 362.589844 301.769531 362.984375 302.300781 363.351562 302.851562 C 363.71875 303.398438 364.054688 303.964844 364.367188 304.546875 C 364.679688 305.128906 364.960938 305.726562 365.210938 306.335938 C 365.464844 306.949219 365.6875 307.570312 365.878906 308.199219 C 366.070312 308.832031 366.230469 309.472656 366.359375 310.121094 C 366.488281 310.769531 366.585938 311.421875 366.648438 312.078125 C 366.714844 312.734375 366.746094 313.394531 366.746094 314.054688 Z M 366.746094 314.054688 " fill-opacity="1" fill-rule="nonzero"/></g><path fill="#e8898b" d="M 259.945312 303.699219 C 256.605469 292.984375 226.613281 297.855469 222.777344 299.121094 C 220.902344 299.738281 219.042969 300.472656 217.234375 301.316406 C 211.136719 304.152344 205.5625 308.195312 201.496094 313.128906 C 200.917969 313.832031 199.664062 315.5625 199.679688 316.703125 C 199.679688 316.703125 199.679688 316.765625 199.683594 316.792969 C 199.710938 317.375 200.472656 317.792969 200.839844 317.4375 C 205.289062 313.113281 210.707031 309.773438 216.8125 307.640625 C 217.140625 307.523438 217.574219 307.734375 217.785156 308.101562 C 217.992188 308.472656 217.894531 308.867188 217.566406 308.980469 C 211.199219 311.207031 205.589844 314.777344 201.085938 319.421875 C 200.90625 319.609375 200.921875 319.933594 201.113281 320.210938 C 201.261719 320.421875 201.417969 320.632812 201.585938 320.839844 C 201.851562 321.179688 202.300781 321.28125 202.546875 321.058594 C 206.769531 317.25 212.34375 314.15625 219.421875 311.683594 C 219.75 311.570312 220.183594 311.773438 220.390625 312.148438 C 220.601562 312.515625 220.503906 312.910156 220.175781 313.023438 C 213.238281 315.449219 207.785156 318.472656 203.660156 322.183594 C 203.40625 322.40625 203.488281 322.867188 203.820312 323.152344 C 204.199219 323.476562 204.589844 323.78125 204.980469 324.058594 C 205.230469 324.234375 205.519531 324.246094 205.703125 324.101562 C 210.167969 320.664062 215.925781 317.097656 221.808594 315.839844 C 222.15625 315.765625 222.582031 316.015625 222.753906 316.394531 C 222.925781 316.777344 222.78125 317.144531 222.433594 317.21875 C 217.203125 318.335938 212.046875 321.355469 207.855469 324.449219 C 207.449219 324.75 207.777344 325.542969 208.363281 325.632812 C 210.527344 325.964844 212.335938 324.0625 214.019531 323.394531 C 216.601562 322.371094 219.257812 321.414062 222.148438 321.007812 C 222.257812 320.992188 222.363281 320.976562 222.476562 320.964844 C 234.589844 319.664062 256.421875 322.726562 259.957031 308.058594 C 260.363281 306.378906 260.332031 304.933594 259.945312 303.699219 Z M 259.945312 303.699219 " fill-opacity="1" fill-rule="nonzero"/><g clip-path="url(#6f9d1e6d20)"><path fill="#bbd9f4" d="M 139.972656 89.445312 L 216.671875 89.445312 C 221.523438 89.445312 225.492188 85.472656 225.492188 80.617188 L 225.492188 46.398438 C 225.492188 41.542969 221.523438 37.570312 216.671875 37.570312 L 139.972656 37.570312 C 135.121094 37.570312 131.148438 41.542969 131.148438 46.398438 L 131.148438 80.617188 C 131.148438 85.472656 135.121094 89.445312 139.972656 89.445312 Z M 139.972656 89.445312 " fill-opacity="1" fill-rule="nonzero"/></g><path fill="#bbd9f4" d="M 185.058594 82.402344 L 211.695312 109.054688 L 211.695312 72.5625 Z M 185.058594 82.402344 " fill-opacity="1" fill-rule="nonzero"/><path fill="#ffffff" d="M 140.335938 52.617188 L 216.308594 52.617188 C 217.390625 52.617188 218.277344 51.734375 218.277344 50.648438 C 218.277344 49.566406 217.390625 48.679688 216.308594 48.679688 L 140.335938 48.679688 C 139.253906 48.679688 138.367188 49.5625 138.367188 50.648438 C 138.367188 51.734375 139.253906 52.617188 140.335938 52.617188 Z M 140.335938 52.617188 " fill-opacity="1" fill-rule="nonzero"/><path fill="#ffffff" d="M 140.335938 65.476562 L 216.308594 65.476562 C 217.390625 65.476562 218.277344 64.589844 218.277344 63.507812 C 218.277344 62.425781 217.390625 61.535156 216.308594 61.535156 L 140.335938 61.535156 C 139.253906 61.535156 138.367188 62.421875 138.367188 63.507812 C 138.367188 64.589844 139.253906 65.476562 140.335938 65.476562 Z M 140.335938 65.476562 " fill-opacity="1" fill-rule="nonzero"/><path fill="#ffffff" d="M 171.761719 78.339844 L 216.308594 78.339844 C 217.390625 78.339844 218.277344 77.453125 218.277344 76.367188 C 218.277344 75.285156 217.390625 74.398438 216.308594 74.398438 L 171.761719 74.398438 C 170.679688 74.398438 169.792969 75.285156 169.792969 76.367188 C 169.792969 77.453125 170.679688 78.339844 171.761719 78.339844 Z M 171.761719 78.339844 " fill-opacity="1" fill-rule="nonzero"/></svg>